<svg id="OBJECTS" xmlns="http://www.w3.org/2000/svg" xmlns:xlink="http://www.w3.org/1999/xlink" viewBox="0 0 500 500"><defs><style>.cls-1{fill:url(#Degradado_sin_nombre_81);}.cls-2{fill:url(#Degradado_sin_nombre_81-2);}.cls-3{fill:url(#Degradado_sin_nombre_81-3);}.cls-4{fill:url(#Degradado_sin_nombre_81-4);}</style><linearGradient id="Degradado_sin_nombre_81" x1="32.29" y1="299.33" x2="466.65" y2="299.33" gradientUnits="userSpaceOnUse"><stop offset="0.15" stop-color="#00eed6"/><stop offset="0.29" stop-color="#22ced6"/><stop offset="0.78" stop-color="#8f69d8"/><stop offset="1" stop-color="#ba40d8"/></linearGradient><linearGradient id="Degradado_sin_nombre_81-2" x1="54.08" y1="139.04" x2="470.04" y2="139.04" xlink:href="#Degradado_sin_nombre_81"/><linearGradient id="Degradado_sin_nombre_81-3" x1="121.55" y1="426.6" x2="418.57" y2="129.59" xlink:href="#Degradado_sin_nombre_81"/><linearGradient id="Degradado_sin_nombre_81-4" x1="81.75" y1="405.65" x2="407.75" y2="79.64" xlink:href="#Degradado_sin_nombre_81"/></defs><title>favicon-orchids-spa-nails</title><path class="cls-1" d="M422.79,351.91C404.47,373,362,416.34,301.22,409A158.29,158.29,0,1,1,155.28,133.1c-17.43,3.19-34.94,6.92-44.13,10.41-34.42,13.07-64,24.93-64,24.93S28.7,216.49,32.92,275A218.47,218.47,0,0,0,161.07,446.86c2,.87,4,1.75,6.07,2.59h0q3.91,1.59,7.79,3a218.48,218.48,0,0,0,240-62.85c41.71-54.91,52.81-112.92,51.67-119C466.57,270.65,453.92,316,422.79,351.91Z"/><path class="cls-2" d="M222.41,115.16a158.26,158.26,0,0,1,244.16,133c.47-2.13.76-4.22,1.14-6.33A218,218,0,0,0,378.62,71.13a289.5,289.5,0,0,0-48.95-27,216.3,216.3,0,0,0-35.5-10.68h0C276.52,31.6,246.93,27.55,213,31.9A218.26,218.26,0,0,0,75.42,115.33a288.38,288.38,0,0,0-21.34,34.36S137,98.44,222.41,115.16Z"/><path class="cls-3" d="M308.27,89.82a157.49,157.49,0,0,0-85.86,25.34c34.72,6.8,69.85,24.86,100,62.14a158.6,158.6,0,0,1,27,41.46c18.76,35.65,17.67,70.65,9.9,99.52a157.8,157.8,0,0,1-35.8,69.92h0S438,377.5,466.57,248.12A158.3,158.3,0,0,0,308.27,89.82Z"/><path class="cls-4" d="M249.5,395.1h0c-2.91-1.17-5.79-2.4-8.61-3.73l-.35-.16c-.83-.39-1.64-.8-2.46-1.21-61.71-29.6-84.23-80.34-87.4-127.53-.42-4.72-.67-9.5-.67-14.34a158.57,158.57,0,0,1,5.36-40.91,117.79,117.79,0,0,1,4.85-15.06,157.83,157.83,0,0,1,26.22-45.05,243.82,243.82,0,0,1,18.55-22s-24.76,3.44-49.68,8A158.29,158.29,0,1,0,301.22,409a198,198,0,0,1-46.68-12C252.84,396.43,251.17,395.77,249.5,395.1Z"/></svg>