<svg xmlns="http://www.w3.org/2000/svg" xmlns:xlink="http://www.w3.org/1999/xlink" viewBox="0 0 1200 1200"><defs><style>.cls-1{isolation:isolate;}.cls-2{fill:url(#linear-gradient);}.cls-3{fill:url(#linear-gradient-3);}.cls-4{fill:url(#linear-gradient-4);}.cls-5{mix-blend-mode:multiply;fill:url(#linear-gradient-5);}.cls-6{mix-blend-mode:overlay;fill:url(#linear-gradient-6);}</style><linearGradient id="linear-gradient" x1="920.74" y1="804.26" x2="516.6" y2="198.04" gradientUnits="userSpaceOnUse"><stop offset="0" stop-color="#4e19f4"/><stop offset="0.45" stop-color="#a81cf2"/><stop offset="1" stop-color="#ff1556"/></linearGradient><linearGradient id="linear-gradient-3" x1="87.78" y1="377.36" x2="780.07" y2="1069.65" gradientUnits="userSpaceOnUse"><stop offset="0" stop-color="#ff1556"/><stop offset="1" stop-color="#ff892a"/></linearGradient><linearGradient id="linear-gradient-4" x1="597.34" y1="413.15" x2="1249.89" y2="413.15" xlink:href="#linear-gradient-3"/><linearGradient id="linear-gradient-5" x1="821.2" y1="594.97" x2="881.82" y2="373.47" gradientUnits="userSpaceOnUse"><stop offset="0" stop-color="#4e19bb"/><stop offset="0.02" stop-color="#531fbd"/><stop offset="0.23" stop-color="#8662d1"/><stop offset="0.42" stop-color="#b19ae1"/><stop offset="0.61" stop-color="#d3c6ee"/><stop offset="0.77" stop-color="#ebe5f7"/><stop offset="0.91" stop-color="#faf8fd"/><stop offset="1" stop-color="#fff"/></linearGradient><linearGradient id="linear-gradient-6" x1="362.43" y1="612.97" x2="600.37" y2="977.95" gradientUnits="userSpaceOnUse"><stop offset="0" stop-color="#fff" stop-opacity="0"/><stop offset="1" stop-color="#fff"/></linearGradient></defs><title>favicon-vstar-nails</title><g class="cls-1"><g id="Graphic_Elements" data-name="Graphic Elements"><path class="cls-2" d="M1143.49,385,801.55,900.52c-97,146.1-311.45,146.1-408.35,0L51.18,385C-2.3,304.33,55.54,196.6,152.3,196.6H346.12a189.85,189.85,0,0,1,158.2,84.91l93,140.25,93-140.25a189.85,189.85,0,0,1,158.2-84.91h193.89C1139.21,196.6,1197,304.33,1143.49,385Z"/><path class="cls-2" d="M1143.49,385,801.55,900.52c-97,146.1-311.45,146.1-408.35,0L51.18,385C-2.3,304.33,55.54,196.6,152.3,196.6H346.12a189.85,189.85,0,0,1,158.2,84.91l93,140.25,93-140.25a189.85,189.85,0,0,1,158.2-84.91h193.89C1139.21,196.6,1197,304.33,1143.49,385Z"/><path class="cls-3" d="M493.46,800.26l-342-515.51a119.44,119.44,0,0,1-18.73-86.57C48.05,211.52,1.43,310,51.18,385l342,515.51c96.9,146.1,311.37,146.1,408.35,0l13.65-20.58C708.89,937.9,567.17,911.4,493.46,800.26Z"/><path class="cls-4" d="M1143.49,385c53.48-80.68-4.28-188.41-101-188.41H848.55a189.85,189.85,0,0,0-158.2,84.91l-93,140.25,76.24,110.3c91,131.7,286.25,129.83,374.74-3.57Z"/><path class="cls-5" d="M645.68,348.87l-48.34,72.89,76.24,110.3c91,131.7,286.25,129.83,374.74-3.57L1143.49,385a122.61,122.61,0,0,0,16.33-36.14Z"/><path class="cls-6" d="M152.3,196.6C55.54,196.6-2.3,304.33,51.18,385l342,515.51c82.06,123.73,248.42,142.63,356.35,56.8L243,196.6Z"/></g></g></svg>